<?xml version="1.0" encoding="utf-8"?>
<!-- Generator: Adobe Illustrator 17.0.0, SVG Export Plug-In . SVG Version: 6.00 Build 0)  -->
<!DOCTYPE svg PUBLIC "-//W3C//DTD SVG 1.1//EN" "http://www.w3.org/Graphics/SVG/1.1/DTD/svg11.dtd">
<svg version="1.1" id="图层_1" xmlns="http://www.w3.org/2000/svg" xmlns:xlink="http://www.w3.org/1999/xlink" x="0px" y="0px"
	 width="36px" height="36px" viewBox="0 0 36 36" enable-background="new 0 0 36 36" xml:space="preserve">
<path fill="none" stroke="#48AFF0" stroke-linecap="round" stroke-linejoin="round" stroke-miterlimit="10" d="M6.08,28.326
	c0.87-0.13,1.785,0.174,2.403,0.888c0.96,1.109,0.839,2.785-0.27,3.745c-1.109,0.96-2.785,0.839-3.745-0.27
	c-0.6-0.693-0.778-1.608-0.556-2.431"/>
<path fill="none" stroke="#48AFF0" stroke-linecap="round" stroke-linejoin="round" stroke-miterlimit="10" d="M31.255,6.225
	c0.87-0.13,1.785,0.174,2.403,0.888c0.96,1.109,0.839,2.785-0.27,3.745c-1.109,0.96-2.785,0.839-3.745-0.27
	c-0.6-0.693-0.778-1.608-0.556-2.431"/>
<g>
	<path fill="none" stroke="#182026" stroke-linecap="round" stroke-linejoin="round" stroke-miterlimit="10" d="M32.764,9.76
		c-3.063-4.193-8.003-6.929-13.593-6.929c-9.3,0-16.839,7.539-16.839,16.839c0,4.798,2.017,9.117,5.237,12.184"/>
	<path fill="none" stroke="#182026" stroke-linecap="round" stroke-linejoin="round" stroke-miterlimit="10" d="M7.568,31.854"/>
	<path fill="none" stroke="#182026" stroke-linecap="round" stroke-linejoin="round" stroke-miterlimit="10" d="M32.764,9.76"/>
</g>
</svg>
