<?xml version="1.0" encoding="utf-8"?>
<!-- Generator: Adobe Illustrator 17.0.0, SVG Export Plug-In . SVG Version: 6.00 Build 0)  -->
<!DOCTYPE svg PUBLIC "-//W3C//DTD SVG 1.1//EN" "http://www.w3.org/Graphics/SVG/1.1/DTD/svg11.dtd">
<svg version="1.1" id="图层_1" xmlns="http://www.w3.org/2000/svg" xmlns:xlink="http://www.w3.org/1999/xlink" x="0px" y="0px"
	 width="36px" height="36px" viewBox="0 0 36 36" enable-background="new 0 0 36 36" xml:space="preserve">
<g>
	<g>
		<g>
			<path fill="none" stroke="#3FA9F5" stroke-linecap="round" stroke-linejoin="round" d="M22.198,2.75c0,0,0.737,0.626,1.752,1.775
				"/>
			<path fill="none" stroke="#3FA9F5" stroke-linecap="round" stroke-linejoin="round" stroke-dasharray="4.0622,4.0622" d="
				M26.39,7.767c0.981,1.542,1.926,3.397,2.566,5.505"/>
			
				<path fill="none" stroke="#3FA9F5" stroke-linecap="round" stroke-linejoin="round" stroke-dasharray="4.0622,4.0622,4.0622,4.0622" d="
				M29.445,15.248c0.755,3.936,0.339,8.589-2.665,13.643"/>
			<path fill="none" stroke="#3FA9F5" stroke-linecap="round" stroke-linejoin="round" d="M25.674,30.599
				c-0.461,0.657-0.966,1.321-1.519,1.989"/>
		</g>
	</g>
	
		<circle fill="none" stroke="#182026" stroke-linecap="round" stroke-linejoin="round" stroke-miterlimit="10" cx="18.031" cy="18" r="16"/>
	
		<ellipse fill="none" stroke="#3FA9F5" stroke-linecap="round" stroke-linejoin="round" stroke-miterlimit="10" cx="18.031" cy="18" rx="16.833" ry="3.833"/>
	<path fill="#182026" d="M1.719,15.406c0,0-0.094-0.266,1.094-0.531c0,0-0.313,1.266-0.344,3c0,0-0.031,0.125-0.875,1.531
		C1.594,19.406,1.328,16.937,1.719,15.406z"/>
	<path fill="#182026" d="M34.25,14.875c0,0,0.063-0.141-1.125-0.406c0,0,0.375,1.984,0.406,3.719c0,0,0.219,0.125,0.938,1.094
		C34.469,19.281,34.641,16.406,34.25,14.875z"/>
</g>
</svg>
