<?xml version="1.0" encoding="utf-8"?>
<!-- Generator: Adobe Illustrator 17.0.0, SVG Export Plug-In . SVG Version: 6.00 Build 0)  -->
<!DOCTYPE svg PUBLIC "-//W3C//DTD SVG 1.1//EN" "http://www.w3.org/Graphics/SVG/1.1/DTD/svg11.dtd">
<svg version="1.1" id="图层_1" xmlns="http://www.w3.org/2000/svg" xmlns:xlink="http://www.w3.org/1999/xlink" x="0px" y="0px"
	 width="36px" height="36px" viewBox="0 0 36 36" enable-background="new 0 0 36 36" xml:space="preserve">
<g>
	<g>
		<defs>
			<polygon id="SVGID_13_" points="8.437,4.391 9.375,15.141 26,13.391 27.062,4.297 36,5.891 36,30.641 0,31.703 0,4.641 			"/>
		</defs>
		<clipPath id="SVGID_2_">
			<use xlink:href="#SVGID_13_"  overflow="visible"/>
		</clipPath>
		
			<rect x="1.5" y="9.5" clip-path="url(#SVGID_2_)" fill="none" stroke="#182026" stroke-linecap="round" stroke-linejoin="round" stroke-miterlimit="10" width="32" height="20"/>
	</g>
	<path fill="none" stroke="#48AFF0" stroke-linecap="round" stroke-linejoin="round" stroke-miterlimit="10" d="M12.795,7.601
		c-0.345-0.544-0.952-0.905-1.644-0.905c-1.074,0-1.945,0.871-1.945,1.945s0.871,1.945,1.945,1.945c0.671,0,1.263-0.34,1.613-0.858"
		/>
	<path fill="none" stroke="#48AFF0" stroke-linecap="round" stroke-linejoin="round" stroke-miterlimit="10" d="M23.517,7.601
		c0.345-0.544,0.952-0.905,1.644-0.905c1.074,0,1.945,0.871,1.945,1.945s-0.871,1.945-1.945,1.945c-0.671,0-1.263-0.34-1.613-0.858"
		/>
</g>
</svg>
