<?xml version="1.0" encoding="utf-8"?>
<!-- Generator: Adobe Illustrator 17.0.0, SVG Export Plug-In . SVG Version: 6.00 Build 0)  -->
<!DOCTYPE svg PUBLIC "-//W3C//DTD SVG 1.1//EN" "http://www.w3.org/Graphics/SVG/1.1/DTD/svg11.dtd">
<svg version="1.1" id="图层_1" xmlns="http://www.w3.org/2000/svg" xmlns:xlink="http://www.w3.org/1999/xlink" x="0px" y="0px"
	 width="36px" height="36px" viewBox="0 0 36 36" enable-background="new 0 0 36 36" xml:space="preserve">
<g>
	
		<line fill="none" stroke="#182026" stroke-linecap="round" stroke-linejoin="round" stroke-miterlimit="10" x1="3.373" y1="11.161" x2="10.444" y2="4.089"/>
	<path fill="none" stroke="#48AFF0" stroke-linecap="round" stroke-linejoin="round" stroke-miterlimit="10" d="M9.782,6.577
		c0.78,0.175,1.63-0.041,2.237-0.648c0.943-0.943,0.943-2.471,0-3.414s-2.471-0.943-3.414,0c-0.589,0.589-0.81,1.407-0.663,2.168"/>
	<path fill="none" stroke="#48AFF0" stroke-linecap="round" stroke-linejoin="round" stroke-miterlimit="10" d="M5.86,10.498
		c0.175,0.78-0.041,1.63-0.648,2.237c-0.943,0.943-2.471,0.943-3.414,0c-0.943-0.943-0.943-2.471,0-3.414
		c0.589-0.589,1.407-0.81,2.168-0.663"/>
</g>
<polygon opacity="0.2" fill="#48AFF0" points="34,24 19,24 19,2 27.922,2 34,8.58 "/>
<polygon fill="none" stroke="#182026" stroke-linecap="round" stroke-linejoin="round" stroke-miterlimit="10" points="33.5,24.5 
	18.5,24.5 18.5,2.5 27.922,2.5 33.5,8.58 "/>
<rect x="8.5" y="12.5" fill="#48AFF0" stroke="#182026" stroke-linecap="round" stroke-linejoin="round" stroke-miterlimit="10" width="16" height="22"/>
</svg>
