<?xml version="1.0" encoding="utf-8"?>
<!-- Generator: Adobe Illustrator 17.0.0, SVG Export Plug-In . SVG Version: 6.00 Build 0)  -->
<!DOCTYPE svg PUBLIC "-//W3C//DTD SVG 1.1//EN" "http://www.w3.org/Graphics/SVG/1.1/DTD/svg11.dtd">
<svg version="1.1" id="图层_1" xmlns="http://www.w3.org/2000/svg" xmlns:xlink="http://www.w3.org/1999/xlink" x="0px" y="0px"
	 width="36px" height="36px" viewBox="0 0 36 36" enable-background="new 0 0 36 36" xml:space="preserve">
<g>
	
		<line fill="none" stroke="#182026" stroke-linecap="round" stroke-linejoin="round" stroke-miterlimit="10" x1="2" y1="19.5" x2="34" y2="19.5"/>
	
		<line fill="none" stroke="#182026" stroke-linecap="round" stroke-linejoin="round" stroke-miterlimit="10" x1="9.5" y1="29" x2="9.5" y2="7"/>
	<path fill="none" stroke="#48AFF0" stroke-linecap="round" stroke-linejoin="round" stroke-miterlimit="10" d="M11.29,15.773
		c0.675,0.428,1.124,1.182,1.124,2.04c0,1.333-1.081,2.414-2.414,2.414s-2.414-1.081-2.414-2.414c0-0.833,0.422-1.568,1.064-2.002"
		/>
	
		<line fill="none" stroke="#182026" stroke-linecap="round" stroke-linejoin="round" stroke-miterlimit="10" x1="25.5" y1="29" x2="25.5" y2="7"/>
	<path fill="none" stroke="#48AFF0" stroke-linecap="round" stroke-linejoin="round" stroke-miterlimit="10" d="M27.29,15.773
		c0.675,0.428,1.124,1.182,1.124,2.04c0,1.333-1.081,2.414-2.414,2.414s-2.414-1.081-2.414-2.414c0-0.833,0.422-1.568,1.064-2.002"
		/>
</g>
</svg>
