<?xml version="1.0" encoding="utf-8"?>
<!-- Generator: Adobe Illustrator 17.0.0, SVG Export Plug-In . SVG Version: 6.00 Build 0)  -->
<!DOCTYPE svg PUBLIC "-//W3C//DTD SVG 1.1//EN" "http://www.w3.org/Graphics/SVG/1.1/DTD/svg11.dtd">
<svg version="1.1" id="图层_1" xmlns="http://www.w3.org/2000/svg" xmlns:xlink="http://www.w3.org/1999/xlink" x="0px" y="0px"
	 width="36px" height="36px" viewBox="0 0 36 36" enable-background="new 0 0 36 36" xml:space="preserve">
<g>
	<polygon opacity="0.2" fill="#3FA9F5" points="7,14.049 2,2.5 2,20.911 7,32.46 	"/>
	<polygon fill="none" stroke="#182026" stroke-linecap="round" stroke-linejoin="round" stroke-miterlimit="10" points="6.5,14.049 
		1.5,2.5 1.5,20.911 6.5,32.46 	"/>
	<polygon opacity="0.2" fill="#3FA9F5" points="33,14.049 28,2.5 28,20.911 33,32.46 	"/>
	<polygon fill="none" stroke="#182026" stroke-linecap="round" stroke-linejoin="round" stroke-miterlimit="10" points="
		32.5,14.049 27.5,2.5 27.5,20.911 32.5,32.46 	"/>
	<rect x="10" y="17" opacity="0.2" fill="#3FA9F5" width="19" height="17"/>
	
		<rect x="9.5" y="17.5" fill="none" stroke="#182026" stroke-linecap="round" stroke-linejoin="round" stroke-miterlimit="10" width="19" height="17"/>
	<polygon opacity="0.2" fill="#3FA9F5" points="10.843,12 6.898,4 25.308,4 29.254,12 	"/>
	<polygon fill="none" stroke="#182026" stroke-linecap="round" stroke-linejoin="round" stroke-miterlimit="10" points="
		10.843,12.5 6.898,4.5 25.308,4.5 29.254,12.5 	"/>
</g>
</svg>
