<?xml version="1.0" encoding="utf-8"?>
<!-- Generator: Adobe Illustrator 17.0.0, SVG Export Plug-In . SVG Version: 6.00 Build 0)  -->
<!DOCTYPE svg PUBLIC "-//W3C//DTD SVG 1.1//EN" "http://www.w3.org/Graphics/SVG/1.1/DTD/svg11.dtd">
<svg version="1.1" id="图层_1" xmlns="http://www.w3.org/2000/svg" xmlns:xlink="http://www.w3.org/1999/xlink" x="0px" y="0px"
	 width="36px" height="36px" viewBox="0 0 36 36" enable-background="new 0 0 36 36" xml:space="preserve">
<g>
	<g>
		
			<line fill="none" stroke="#182026" stroke-linecap="round" stroke-linejoin="round" stroke-miterlimit="10" x1="2" y1="18.5" x2="14" y2="18.5"/>
		<path fill="none" stroke="#48AFF0" stroke-linecap="round" stroke-linejoin="round" stroke-miterlimit="10" d="M12.546,19.29
			c0.428,0.675,1.182,1.124,2.04,1.124C15.919,20.414,17,19.333,17,18s-1.081-2.414-2.414-2.414c-0.833,0-1.568,0.422-2.002,1.064"
			/>
	</g>
	<g>
		
			<line fill="none" stroke="#182026" stroke-linecap="round" stroke-linejoin="round" stroke-miterlimit="10" x1="34" y1="18.5" x2="22" y2="18.5"/>
		<path fill="none" stroke="#48AFF0" stroke-linecap="round" stroke-linejoin="round" stroke-miterlimit="10" d="M23.454,19.29
			c-0.428,0.675-1.182,1.124-2.04,1.124C20.081,20.414,19,19.333,19,18s1.081-2.414,2.414-2.414c0.833,0,1.568,0.422,2.002,1.064"/>
	</g>
</g>
</svg>
