<?xml version="1.0" encoding="utf-8"?>
<!-- Generator: Adobe Illustrator 17.0.0, SVG Export Plug-In . SVG Version: 6.00 Build 0)  -->
<!DOCTYPE svg PUBLIC "-//W3C//DTD SVG 1.1//EN" "http://www.w3.org/Graphics/SVG/1.1/DTD/svg11.dtd">
<svg version="1.1" id="图层_1" xmlns="http://www.w3.org/2000/svg" xmlns:xlink="http://www.w3.org/1999/xlink" x="0px" y="0px"
	 width="36px" height="36px" viewBox="0 0 36 36" enable-background="new 0 0 36 36" xml:space="preserve">
<g>
	
		<line fill="none" stroke="#182026" stroke-linecap="round" stroke-linejoin="round" stroke-miterlimit="10" x1="16.203" y1="4.229" x2="31.734" y2="19.76"/>
	<path fill="none" stroke="#48AFF0" stroke-linecap="round" stroke-linejoin="round" stroke-miterlimit="10" d="M16.908,6.759
		c-0.78,0.175-1.63-0.041-2.237-0.648c-0.943-0.943-0.943-2.471,0-3.414c0.943-0.943,2.471-0.943,3.414,0
		c0.589,0.589,0.81,1.407,0.663,2.168"/>
	<path fill="none" stroke="#48AFF0" stroke-linecap="round" stroke-linejoin="round" stroke-miterlimit="10" d="M29.236,19.087
		c-0.175,0.78,0.041,1.63,0.648,2.237c0.943,0.943,2.471,0.943,3.414,0c0.943-0.943,0.943-2.471,0-3.414
		c-0.589-0.589-1.407-0.81-2.168-0.663"/>
	
		<line fill="none" stroke="#182026" stroke-linecap="round" stroke-linejoin="round" stroke-miterlimit="10" x1="23.5" y1="31" x2="23.5" y2="27"/>
	
		<line fill="none" stroke="#182026" stroke-linecap="round" stroke-linejoin="round" stroke-miterlimit="10" x1="12.5" y1="29" x2="12.5" y2="27"/>
	
		<line fill="none" stroke="#182026" stroke-linecap="round" stroke-linejoin="round" stroke-miterlimit="10" x1="28.5" y1="29" x2="28.5" y2="27"/>
	
		<line fill="none" stroke="#182026" stroke-linecap="round" stroke-linejoin="round" stroke-miterlimit="10" x1="17.5" y1="29" x2="17.5" y2="27"/>
	<polygon fill="none" stroke="#182026" stroke-linecap="round" stroke-linejoin="round" stroke-miterlimit="10" points="9.5,26.5 
		9.5,2.5 1.5,2.5 1.5,26.01 1.5,34.5 9.984,34.5 33.5,34.5 33.5,26.5 	"/>
	
		<line fill="none" stroke="#182026" stroke-linecap="round" stroke-linejoin="round" stroke-miterlimit="10" x1="5" y1="12.5" x2="9" y2="12.5"/>
	
		<line fill="none" stroke="#182026" stroke-linecap="round" stroke-linejoin="round" stroke-miterlimit="10" x1="7" y1="23.5" x2="9" y2="23.5"/>
	
		<line fill="none" stroke="#182026" stroke-linecap="round" stroke-linejoin="round" stroke-miterlimit="10" x1="7" y1="7.5" x2="9" y2="7.5"/>
	
		<line fill="none" stroke="#182026" stroke-linecap="round" stroke-linejoin="round" stroke-miterlimit="10" x1="7" y1="18.5" x2="9" y2="18.5"/>
</g>
</svg>
