<?xml version="1.0" encoding="utf-8"?>
<!-- Generator: Adobe Illustrator 17.0.0, SVG Export Plug-In . SVG Version: 6.00 Build 0)  -->
<!DOCTYPE svg PUBLIC "-//W3C//DTD SVG 1.1//EN" "http://www.w3.org/Graphics/SVG/1.1/DTD/svg11.dtd">
<svg version="1.1" id="图层_1" xmlns="http://www.w3.org/2000/svg" xmlns:xlink="http://www.w3.org/1999/xlink" x="0px" y="0px"
	 width="36px" height="36px" viewBox="0 0 36 36" enable-background="new 0 0 36 36" xml:space="preserve">
<g>
	<path fill="none" stroke="#48AFF0" stroke-miterlimit="10" d="M34,22.5H19.5V11.149c0-1.81-1.69-3.277-3.5-3.277
		s-3.5,1.467-3.5,3.277V22.5H8.653c-1.81,0-3.277,1.69-3.277,3.5s1.467,3.5,3.277,3.5H34"/>
	<path fill="none" stroke="#182026" stroke-miterlimit="10" d="M34,19.5H22.5V9.385c0-2.51-3.063-5.698-6.375-5.698
		c-3.438,0-6.625,3.125-6.625,5.698V19.5H7.823c-2.762,0-6.042,2.25-6.042,6.438c0,4.012,3.896,6.562,5.688,6.562H34"/>
	<g>
		<defs>
			<rect id="SVGID_23_" x="5" y="22" width="29" height="8"/>
		</defs>
		<clipPath id="SVGID_2_">
			<use xlink:href="#SVGID_23_"  overflow="visible"/>
		</clipPath>
		
			<line clip-path="url(#SVGID_2_)" fill="none" stroke="#182026" stroke-linecap="round" stroke-linejoin="round" stroke-miterlimit="10" x1="9" y1="26.5" x2="36" y2="26.5"/>
	</g>
	
		<line fill="none" stroke="#182026" stroke-linecap="round" stroke-linejoin="round" stroke-miterlimit="10" x1="16.5" y1="12" x2="16.5" y2="25"/>
</g>
</svg>
