<?xml version="1.0" encoding="utf-8"?>
<!-- Generator: Adobe Illustrator 17.0.0, SVG Export Plug-In . SVG Version: 6.00 Build 0)  -->
<!DOCTYPE svg PUBLIC "-//W3C//DTD SVG 1.1//EN" "http://www.w3.org/Graphics/SVG/1.1/DTD/svg11.dtd">
<svg version="1.1" id="图层_1" xmlns="http://www.w3.org/2000/svg" xmlns:xlink="http://www.w3.org/1999/xlink" x="0px" y="0px"
	 width="36px" height="36px" viewBox="0 0 36 36" enable-background="new 0 0 36 36" xml:space="preserve">
<g>
	
		<line fill="none" stroke="#182026" stroke-linecap="round" stroke-linejoin="round" stroke-miterlimit="10" x1="12" y1="20.5" x2="34" y2="20.5"/>
	<path fill="none" stroke="#48AFF0" stroke-linecap="round" stroke-linejoin="round" stroke-miterlimit="10" d="M24.014,20.331
		c0.4,0.631,1.104,1.049,1.906,1.049c1.245,0,2.255-1.009,2.255-2.255c0-1.245-1.009-2.255-2.255-2.255
		c-0.778,0-1.464,0.394-1.87,0.994"/>
	
		<line fill="none" stroke="#182026" stroke-linecap="round" stroke-linejoin="round" stroke-miterlimit="10" x1="12" y1="33.5" x2="34" y2="33.5"/>
	<path fill="none" stroke="#48AFF0" stroke-linecap="round" stroke-linejoin="round" stroke-miterlimit="10" d="M24.014,33.408
		c0.4,0.631,1.104,1.049,1.906,1.049c1.245,0,2.255-1.009,2.255-2.255s-1.009-2.255-2.255-2.255c-0.778,0-1.464,0.394-1.87,0.994"/>
	
		<line fill="none" stroke="#182026" stroke-linecap="round" stroke-linejoin="round" stroke-miterlimit="10" x1="12" y1="26.5" x2="34" y2="26.5"/>
	<path fill="none" stroke="#48AFF0" stroke-linecap="round" stroke-linejoin="round" stroke-miterlimit="10" d="M17.475,26.869
		c0.4,0.631,1.104,1.049,1.906,1.049c1.245,0,2.255-1.009,2.255-2.255c0-1.245-1.009-2.255-2.255-2.255
		c-0.778,0-1.464,0.394-1.87,0.994"/>
	
		<line fill="none" stroke="#182026" stroke-linecap="round" stroke-linejoin="round" stroke-miterlimit="10" x1="6.984" y1="7.525" x2="7" y2="14.344"/>
	
		<line fill="none" stroke="#182026" stroke-linecap="round" stroke-linejoin="round" stroke-miterlimit="10" x1="5.063" y1="5.604" x2="6.984" y2="7.525"/>
	
		<line fill="none" stroke="#182026" stroke-linecap="round" stroke-linejoin="round" stroke-miterlimit="10" x1="12.038" y1="4.608" x2="13.959" y2="6.529"/>
	
		<line fill="none" stroke="#182026" stroke-linecap="round" stroke-linejoin="round" stroke-miterlimit="10" x1="5.063" y1="12.579" x2="6.984" y2="14.5"/>
	
		<line fill="none" stroke="#182026" stroke-linecap="round" stroke-linejoin="round" stroke-miterlimit="10" x1="12.038" y1="11.583" x2="13.959" y2="13.504"/>
	
		<line fill="none" stroke="#182026" stroke-linecap="round" stroke-linejoin="round" stroke-miterlimit="10" x1="7.009" y1="7.55" x2="13.984" y2="6.554"/>
	
		<line fill="none" stroke="#182026" stroke-linecap="round" stroke-linejoin="round" stroke-miterlimit="10" x1="7.009" y1="14.525" x2="13.984" y2="13.529"/>
	
		<line fill="none" stroke="#182026" stroke-linecap="round" stroke-linejoin="round" stroke-miterlimit="10" x1="5.031" y1="5.781" x2="5.063" y2="12.344"/>
	
		<line fill="none" stroke="#182026" stroke-linecap="round" stroke-linejoin="round" stroke-miterlimit="10" x1="11.938" y1="5" x2="11.844" y2="11.5"/>
	
		<line fill="none" stroke="#182026" stroke-linecap="round" stroke-linejoin="round" stroke-miterlimit="10" x1="13.875" y1="6.656" x2="13.906" y2="13.188"/>
	
		<line fill="none" stroke="#182026" stroke-linecap="round" stroke-linejoin="round" stroke-miterlimit="10" x1="5.016" y1="5.557" x2="11.991" y2="4.561"/>
	
		<line fill="none" stroke="#182026" stroke-linecap="round" stroke-linejoin="round" stroke-miterlimit="10" x1="5.016" y1="12.532" x2="11.991" y2="11.536"/>
	
		<line fill="none" stroke="#48AFF0" stroke-linecap="round" stroke-linejoin="round" stroke-miterlimit="10" x1="8.5" y1="2" x2="8.5" y2="4"/>
	
		<line fill="none" stroke="#48AFF0" stroke-linecap="round" stroke-linejoin="round" stroke-miterlimit="10" x1="1" y1="10.5" x2="3" y2="10.5"/>
	
		<line fill="none" stroke="#48AFF0" stroke-linecap="round" stroke-linejoin="round" stroke-miterlimit="10" x1="15" y1="10.5" x2="17" y2="10.5"/>
	
		<line fill="none" stroke="#48AFF0" stroke-linecap="round" stroke-linejoin="round" stroke-miterlimit="10" x1="1.966" y1="2.009" x2="4.08" y2="4.123"/>
	
		<line fill="none" stroke="#48AFF0" stroke-linecap="round" stroke-linejoin="round" stroke-miterlimit="10" x1="17.034" y1="2.009" x2="14.92" y2="4.123"/>
	
		<line fill="none" stroke="#48AFF0" stroke-linecap="round" stroke-linejoin="round" stroke-miterlimit="10" x1="8.5" y1="19" x2="8.5" y2="17"/>
	
		<line fill="none" stroke="#48AFF0" stroke-linecap="round" stroke-linejoin="round" stroke-miterlimit="10" x1="1.966" y1="17.137" x2="4.08" y2="15.024"/>
	
		<line fill="none" stroke="#48AFF0" stroke-linecap="round" stroke-linejoin="round" stroke-miterlimit="10" x1="17.034" y1="17.137" x2="14.92" y2="15.024"/>
</g>
</svg>
