<?xml version="1.0" encoding="utf-8"?>
<!-- Generator: Adobe Illustrator 17.0.0, SVG Export Plug-In . SVG Version: 6.00 Build 0)  -->
<!DOCTYPE svg PUBLIC "-//W3C//DTD SVG 1.1//EN" "http://www.w3.org/Graphics/SVG/1.1/DTD/svg11.dtd">
<svg version="1.1" id="图层_1" xmlns="http://www.w3.org/2000/svg" xmlns:xlink="http://www.w3.org/1999/xlink" x="0px" y="0px"
	 width="36px" height="36px" viewBox="0 0 36 36" enable-background="new 0 0 36 36" xml:space="preserve">
<g>
	<g>
		
			<line fill="none" stroke="#182026" stroke-linecap="round" stroke-linejoin="round" stroke-miterlimit="10" x1="4.808" y1="23.192" x2="23.192" y2="4.808"/>
		<path fill="none" stroke="#48AFF0" stroke-linecap="round" stroke-linejoin="round" stroke-miterlimit="10" d="M6.748,23.077
			c0.175,0.78-0.041,1.63-0.648,2.237c-0.943,0.943-2.471,0.943-3.414,0c-0.943-0.943-0.943-2.471,0-3.414
			c0.589-0.589,1.407-0.81,2.168-0.663"/>
		<path fill="none" stroke="#48AFF0" stroke-linecap="round" stroke-linejoin="round" stroke-miterlimit="10" d="M23.077,6.748
			c0.78,0.175,1.63-0.041,2.237-0.648c0.943-0.943,0.943-2.471,0-3.414c-0.943-0.943-2.471-0.943-3.414,0
			c-0.589,0.589-0.81,1.407-0.663,2.168"/>
	</g>
	<g>
		
			<line fill="none" stroke="#182026" stroke-linecap="round" stroke-linejoin="round" stroke-miterlimit="10" x1="12.808" y1="31.192" x2="31.192" y2="12.808"/>
		<path fill="none" stroke="#48AFF0" stroke-linecap="round" stroke-linejoin="round" stroke-miterlimit="10" d="M14.748,31.077
			c0.175,0.78-0.041,1.63-0.648,2.237c-0.943,0.943-2.471,0.943-3.414,0c-0.943-0.943-0.943-2.471,0-3.414
			c0.589-0.589,1.407-0.81,2.168-0.663"/>
		<path fill="none" stroke="#48AFF0" stroke-linecap="round" stroke-linejoin="round" stroke-miterlimit="10" d="M31.077,14.748
			c0.78,0.175,1.63-0.041,2.237-0.648c0.943-0.943,0.943-2.471,0-3.414c-0.943-0.943-2.471-0.943-3.414,0
			c-0.589,0.589-0.81,1.407-0.663,2.168"/>
	</g>
</g>
</svg>
