<?xml version="1.0" encoding="utf-8"?>
<!-- Generator: Adobe Illustrator 17.0.0, SVG Export Plug-In . SVG Version: 6.00 Build 0)  -->
<!DOCTYPE svg PUBLIC "-//W3C//DTD SVG 1.1//EN" "http://www.w3.org/Graphics/SVG/1.1/DTD/svg11.dtd">
<svg version="1.1" id="图层_1" xmlns="http://www.w3.org/2000/svg" xmlns:xlink="http://www.w3.org/1999/xlink" x="0px" y="0px"
	 width="36px" height="36px" viewBox="0 0 36 36" enable-background="new 0 0 36 36" xml:space="preserve">
<g>
	
		<line fill="none" stroke="#182026" stroke-linecap="round" stroke-linejoin="round" stroke-miterlimit="10" x1="2.207" y1="24.825" x2="12.536" y2="10.982"/>
	
		<line fill="none" stroke="#182026" stroke-linecap="round" stroke-linejoin="round" stroke-miterlimit="10" x1="23.464" y1="24.825" x2="33.793" y2="10.982"/>
	
		<line fill="none" stroke="#182026" stroke-linecap="round" stroke-linejoin="round" stroke-miterlimit="10" x1="23.164" y1="24.825" x2="12.836" y2="10.982"/>
	<path fill="none" stroke="#48AFF0" stroke-linecap="round" stroke-linejoin="round" stroke-miterlimit="10" d="M13.649,13.285
		c0.541-0.343,0.9-0.947,0.9-1.635c0-1.068-0.866-1.935-1.935-1.935s-1.935,0.866-1.935,1.935c0,0.668,0.338,1.257,0.853,1.604"/>
	<path fill="none" stroke="#48AFF0" stroke-linecap="round" stroke-linejoin="round" stroke-miterlimit="10" d="M22.376,22.632
		c-0.554,0.351-0.922,0.969-0.922,1.674c0,1.093,0.886,1.98,1.98,1.98s1.98-0.886,1.98-1.98c0-0.683-0.346-1.286-0.873-1.642"/>
</g>
</svg>
