<?xml version="1.0" encoding="utf-8"?>
<!-- Generator: Adobe Illustrator 17.0.0, SVG Export Plug-In . SVG Version: 6.00 Build 0)  -->
<!DOCTYPE svg PUBLIC "-//W3C//DTD SVG 1.1//EN" "http://www.w3.org/Graphics/SVG/1.1/DTD/svg11.dtd">
<svg version="1.1" id="图层_1" xmlns="http://www.w3.org/2000/svg" xmlns:xlink="http://www.w3.org/1999/xlink" x="0px" y="0px"
	 width="36px" height="36px" viewBox="0 0 36 36" enable-background="new 0 0 36 36" xml:space="preserve">
<g>
	
		<line fill="none" stroke="#48AFF0" stroke-linecap="round" stroke-linejoin="round" stroke-miterlimit="10" x1="29" y1="19.5" x2="34" y2="19.5"/>
	
		<line fill="none" stroke="#48AFF0" stroke-linecap="round" stroke-linejoin="round" stroke-miterlimit="10" x1="29.567" y1="2.32" x2="26.433" y2="9.68"/>
	
		<line fill="none" stroke="#48AFF0" stroke-linecap="round" stroke-linejoin="round" stroke-miterlimit="10" x1="29.567" y1="34.68" x2="26.433" y2="27.32"/>
	
		<line fill="none" stroke="#48AFF0" stroke-linecap="round" stroke-linejoin="round" stroke-miterlimit="10" x1="29.469" y1="14.73" x2="33.711" y2="10.487"/>
	
		<line fill="none" stroke="#48AFF0" stroke-linecap="round" stroke-linejoin="round" stroke-miterlimit="10" x1="29.469" y1="23.215" x2="33.711" y2="27.458"/>
	<g>
		
			<line fill="none" stroke="#182026" stroke-linecap="round" stroke-linejoin="round" stroke-miterlimit="10" x1="6.875" y1="14.979" x2="6.95" y2="29.95"/>
		
			<line fill="none" stroke="#182026" stroke-linecap="round" stroke-linejoin="round" stroke-miterlimit="10" x1="2.094" y1="11.094" x2="6.95" y2="14.95"/>
		
			<line fill="none" stroke="#182026" stroke-linecap="round" stroke-linejoin="round" stroke-miterlimit="10" x1="18.094" y1="7.094" x2="22.95" y2="10.95"/>
		
			<line fill="none" stroke="#182026" stroke-linecap="round" stroke-linejoin="round" stroke-miterlimit="10" x1="2.094" y1="25.094" x2="6.95" y2="29.95"/>
		
			<line fill="none" stroke="#182026" stroke-linecap="round" stroke-linejoin="round" stroke-miterlimit="10" x1="18.094" y1="21.094" x2="22.95" y2="25.95"/>
		
			<line fill="none" stroke="#182026" stroke-linecap="round" stroke-linejoin="round" stroke-miterlimit="10" x1="22.833" y1="11.042" x2="22.792" y2="25.896"/>
		
			<line fill="none" stroke="#182026" stroke-linecap="round" stroke-linejoin="round" stroke-miterlimit="10" x1="7" y1="15" x2="23" y2="11"/>
		
			<line fill="none" stroke="#182026" stroke-linecap="round" stroke-linejoin="round" stroke-miterlimit="10" x1="7" y1="30" x2="23" y2="26"/>
		
			<line fill="none" stroke="#182026" stroke-linecap="round" stroke-linejoin="round" stroke-miterlimit="10" x1="2.042" y1="11.063" x2="2" y2="25"/>
		
			<line fill="none" stroke="#182026" stroke-linecap="round" stroke-linejoin="round" stroke-miterlimit="10" x1="18.021" y1="7.083" x2="17.958" y2="21"/>
		
			<line fill="none" stroke="#182026" stroke-linecap="round" stroke-linejoin="round" stroke-miterlimit="10" x1="2" y1="11" x2="18" y2="7"/>
		
			<line fill="none" stroke="#182026" stroke-linecap="round" stroke-linejoin="round" stroke-miterlimit="10" x1="2" y1="25" x2="18" y2="21"/>
	</g>
	<polygon fill="#48AFF0" points="22.333,25.646 7.417,29.417 7.354,15.417 22.271,11.708 	"/>
</g>
</svg>
