<?xml version="1.0" encoding="utf-8"?>
<!-- Generator: Adobe Illustrator 17.0.0, SVG Export Plug-In . SVG Version: 6.00 Build 0)  -->
<!DOCTYPE svg PUBLIC "-//W3C//DTD SVG 1.1//EN" "http://www.w3.org/Graphics/SVG/1.1/DTD/svg11.dtd">
<svg version="1.1" id="图层_1" xmlns="http://www.w3.org/2000/svg" xmlns:xlink="http://www.w3.org/1999/xlink" x="0px" y="0px"
	 width="36px" height="36px" viewBox="0 0 36 36" enable-background="new 0 0 36 36" xml:space="preserve">
<g>
	<path fill="none" stroke="#182026" stroke-linecap="round" stroke-linejoin="round" stroke-miterlimit="10" d="M2.24,28.767
		c0,0,4.648-26.588,15.76-11.142"/>
	<path fill="none" stroke="#182026" stroke-linecap="round" stroke-linejoin="round" stroke-miterlimit="10" d="M33.76,7.233
		c0,0-4.648,25.838-15.76,10.393"/>
	<path fill="none" stroke="#48AFF0" stroke-linecap="round" stroke-linejoin="round" stroke-miterlimit="10" d="M13.156,13.858
		c-0.351,0.554-0.969,0.922-1.674,0.922c-1.093,0-1.98-0.886-1.98-1.98s0.886-1.98,1.98-1.98c0.683,0,1.286,0.346,1.642,0.873"/>
	<path fill="none" stroke="#48AFF0" stroke-linecap="round" stroke-linejoin="round" stroke-miterlimit="10" d="M26.156,23.558
		c-0.351,0.554-0.969,0.922-1.674,0.922c-1.093,0-1.98-0.886-1.98-1.98s0.886-1.98,1.98-1.98c0.683,0,1.286,0.346,1.642,0.873"/>
</g>
</svg>
