<?xml version="1.0" encoding="utf-8"?>
<!-- Generator: Adobe Illustrator 17.0.0, SVG Export Plug-In . SVG Version: 6.00 Build 0)  -->
<!DOCTYPE svg PUBLIC "-//W3C//DTD SVG 1.1//EN" "http://www.w3.org/Graphics/SVG/1.1/DTD/svg11.dtd">
<svg version="1.1" id="图层_1" xmlns="http://www.w3.org/2000/svg" xmlns:xlink="http://www.w3.org/1999/xlink" x="0px" y="0px"
	 width="36px" height="36px" viewBox="0 0 36 36" enable-background="new 0 0 36 36" xml:space="preserve">
<g>
	<g>
		<path fill="#182026" d="M31.481,32.404c0.132,0.361,0.201,0.651,0.209,0.873c0.009,0.221-0.053,0.39-0.184,0.504
			c-0.132,0.115-0.349,0.188-0.651,0.221c-0.304,0.033-0.709,0.049-1.217,0.049c-0.509,0-0.914-0.012-1.217-0.037
			c-0.304-0.025-0.533-0.066-0.688-0.123c-0.156-0.057-0.271-0.135-0.344-0.233c-0.074-0.099-0.144-0.221-0.209-0.369l-4.726-13.271
			h-9.33L8.623,33.19c-0.05,0.147-0.115,0.275-0.197,0.381c-0.082,0.107-0.2,0.197-0.356,0.271c-0.155,0.074-0.377,0.127-0.663,0.16
			c-0.287,0.033-0.66,0.049-1.118,0.049c-0.476,0-0.865-0.021-1.168-0.062c-0.304-0.041-0.516-0.119-0.639-0.233
			c-0.123-0.114-0.181-0.283-0.172-0.504c0.008-0.221,0.077-0.512,0.208-0.873L15.186,2.834c0.065-0.18,0.151-0.327,0.258-0.442
			c0.106-0.114,0.263-0.205,0.468-0.27c0.204-0.065,0.467-0.111,0.786-0.135c0.319-0.025,0.725-0.037,1.217-0.037
			c0.524,0,0.958,0.012,1.303,0.037c0.344,0.024,0.622,0.07,0.836,0.135c0.212,0.065,0.376,0.16,0.491,0.283
			c0.114,0.123,0.205,0.274,0.271,0.455L31.481,32.404z M17.791,6.325h-0.024L14.182,16.65h7.167L17.791,6.325z"/>
	</g>
</g>
</svg>
