<?xml version="1.0" encoding="utf-8"?>
<!-- Generator: Adobe Illustrator 17.0.0, SVG Export Plug-In . SVG Version: 6.00 Build 0)  -->
<!DOCTYPE svg PUBLIC "-//W3C//DTD SVG 1.1//EN" "http://www.w3.org/Graphics/SVG/1.1/DTD/svg11.dtd">
<svg version="1.1" id="图层_1" xmlns="http://www.w3.org/2000/svg" xmlns:xlink="http://www.w3.org/1999/xlink" x="0px" y="0px"
	 width="36px" height="36px" viewBox="0 0 36 36" enable-background="new 0 0 36 36" xml:space="preserve">
<g>
	<g>
		<g>
			<polyline fill="none" stroke="#48AFF0" stroke-linecap="round" stroke-linejoin="round" points="10,8.5 11.5,8.5 11.5,10 			"/>
			
				<line fill="none" stroke="#48AFF0" stroke-linecap="round" stroke-linejoin="round" stroke-dasharray="4,4" x1="11.5" y1="14" x2="11.5" y2="27"/>
			<polyline fill="none" stroke="#48AFF0" stroke-linecap="round" stroke-linejoin="round" points="11.5,29 11.5,31.5 10,31.5 			
				"/>
			<polyline fill="none" stroke="#48AFF0" stroke-linecap="round" stroke-linejoin="round" points="4,31.5 1.5,31.5 1.5,29 			"/>
			
				<line fill="none" stroke="#48AFF0" stroke-linecap="round" stroke-linejoin="round" stroke-dasharray="4,4" x1="1.5" y1="25" x2="1.5" y2="12"/>
			<polyline fill="none" stroke="#48AFF0" stroke-linecap="round" stroke-linejoin="round" points="1.5,10 1.5,8.5 4,8.5 			"/>
		</g>
	</g>
	<g>
		
			<line fill="none" stroke="#182026" stroke-linecap="round" stroke-linejoin="round" stroke-miterlimit="10" x1="28.329" y1="12.934" x2="24.713" y2="17.371"/>
		
			<line fill="none" stroke="#182026" stroke-linecap="round" stroke-linejoin="round" stroke-miterlimit="10" x1="24.62" y1="17.434" x2="21.036" y2="12.934"/>
		<path fill="none" stroke="#182026" stroke-linecap="round" stroke-linejoin="round" stroke-miterlimit="10" d="M14.917,5.917
			c5.396,0,9.771,4.375,9.771,9.771"/>
	</g>
	
		<rect x="11.5" y="21.5" fill="none" stroke="#182026" stroke-linecap="round" stroke-linejoin="round" stroke-miterlimit="10" width="22" height="10"/>
</g>
<g>
	
		<line fill="none" stroke="#182026" stroke-linecap="round" stroke-linejoin="round" stroke-miterlimit="10" x1="20.063" y1="-0.437" x2="20" y2="-13.734"/>
</g>
</svg>
