<?xml version="1.0" encoding="utf-8"?>
<!-- Generator: Adobe Illustrator 17.0.0, SVG Export Plug-In . SVG Version: 6.00 Build 0)  -->
<!DOCTYPE svg PUBLIC "-//W3C//DTD SVG 1.1//EN" "http://www.w3.org/Graphics/SVG/1.1/DTD/svg11.dtd">
<svg version="1.1" id="图层_1" xmlns="http://www.w3.org/2000/svg" xmlns:xlink="http://www.w3.org/1999/xlink" x="0px" y="0px"
	 width="36px" height="36px" viewBox="0 0 36 36" enable-background="new 0 0 36 36" xml:space="preserve">
<text transform="matrix(1 0 0 1 10.335 -1.3507)" fill="#3FA9F5" font-family="'SourceHanSansSC-Regular-GBpc-EUC-H'" font-size="6">切割1</text>
<g>
	<polygon fill="#48AFF0" points="18,32.26 3,28.728 3,3.584 18,7.117 	"/>
	<polygon fill="#0071BC" points="20.688,30.313 18,32.26 18,7.117 20.719,5.354 	"/>
	<polygon fill="#0071BC" points="18,7.117 3.04,3.549 5.754,1.74 20.719,5.354 	"/>
</g>
<g opacity="0.6">
	<polygon fill="#48AFF0" points="30,34.625 18,32.26 18,7.117 29.938,9.844 	"/>
	<polygon fill="#0071BC" points="33.063,32.813 30,34.625 29.938,9.844 32.828,8.156 	"/>
	<polygon fill="#0071BC" points="29.938,9.844 18,7.117 20.672,5.375 32.828,8.156 	"/>
</g>
<g>
	
		<line fill="none" stroke="#182026" stroke-linecap="round" stroke-linejoin="round" stroke-miterlimit="10" x1="27.743" y1="23.182" x2="9.583" y2="18.583"/>
	
		<line fill="none" stroke="#182026" stroke-linecap="round" stroke-linejoin="round" stroke-miterlimit="10" x1="24.256" y1="18.459" x2="27.719" y2="23.015"/>
	
		<line fill="none" stroke="#182026" stroke-linecap="round" stroke-linejoin="round" stroke-miterlimit="10" x1="27.758" y1="23.121" x2="22.542" y2="25.547"/>
</g>
</svg>
