<?xml version="1.0" encoding="utf-8"?>
<!-- Generator: Adobe Illustrator 17.0.0, SVG Export Plug-In . SVG Version: 6.00 Build 0)  -->
<!DOCTYPE svg PUBLIC "-//W3C//DTD SVG 1.1//EN" "http://www.w3.org/Graphics/SVG/1.1/DTD/svg11.dtd">
<svg version="1.1" id="图层_1" xmlns="http://www.w3.org/2000/svg" xmlns:xlink="http://www.w3.org/1999/xlink" x="0px" y="0px"
	 width="36px" height="36px" viewBox="0 0 36 36" enable-background="new 0 0 36 36" xml:space="preserve">
<g>
	<g>
		<polygon fill="#48AFF0" stroke="#182026" stroke-linecap="round" stroke-linejoin="round" stroke-miterlimit="10" points="
			18.5,34.072 5.5,24.065 5.5,11.899 18.5,22.089 		"/>
		<polygon fill="none" stroke="#182026" stroke-linecap="round" stroke-linejoin="round" stroke-miterlimit="10" points="
			5.5,11.899 18.5,1.884 18.5,10.974 11.781,16.563 		"/>
		<polygon fill="none" stroke="#182026" stroke-linecap="round" stroke-linejoin="round" stroke-miterlimit="10" points="
			30.5,11.899 18.5,1.884 18.5,10.974 25.563,16.281 		"/>
		<polygon fill="none" stroke="#182026" stroke-linecap="round" stroke-linejoin="round" stroke-miterlimit="10" points="
			18.5,34.072 30.5,24.065 30.5,11.899 18.5,22.089 		"/>
		<polygon fill="none" stroke="#182026" stroke-linecap="round" stroke-linejoin="round" stroke-miterlimit="10" points="
			18.604,22.229 11.75,16.708 18.583,11 25.521,16.292 		"/>
	</g>
	<polygon fill="none" stroke="#182026" stroke-linecap="round" stroke-linejoin="round" stroke-miterlimit="10" points="
		18.5,34.072 5.5,24.065 5.5,11.899 18.5,22.089 	"/>
	<polygon fill="none" stroke="#182026" stroke-linecap="round" stroke-linejoin="round" stroke-miterlimit="10" points="5.5,11.899 
		18.5,1.884 18.5,10.974 11.781,16.563 	"/>
	<polygon fill="none" stroke="#182026" stroke-linecap="round" stroke-linejoin="round" stroke-miterlimit="10" points="
		30.5,11.899 18.5,1.884 18.5,10.974 25.563,16.281 	"/>
	<polygon fill="#48AFF0" stroke="#182026" stroke-linecap="round" stroke-linejoin="round" stroke-miterlimit="10" points="
		18.5,34.072 30.5,24.065 30.5,11.899 18.5,22.089 	"/>
	<polygon fill="none" stroke="#182026" stroke-linecap="round" stroke-linejoin="round" stroke-miterlimit="10" points="
		18.604,22.229 11.75,16.708 18.583,11 25.521,16.292 	"/>
</g>
</svg>
