<?xml version="1.0" encoding="utf-8"?>
<!-- Generator: Adobe Illustrator 17.0.0, SVG Export Plug-In . SVG Version: 6.00 Build 0)  -->
<!DOCTYPE svg PUBLIC "-//W3C//DTD SVG 1.1//EN" "http://www.w3.org/Graphics/SVG/1.1/DTD/svg11.dtd">
<svg version="1.1" id="图层_1" xmlns="http://www.w3.org/2000/svg" xmlns:xlink="http://www.w3.org/1999/xlink" x="0px" y="0px"
	 width="36px" height="36px" viewBox="0 0 36 36" enable-background="new 0 0 36 36" xml:space="preserve">
<g>
	<path fill="none" stroke="#48AFF0" stroke-linecap="round" stroke-linejoin="round" stroke-miterlimit="10" d="M20.227,19.29
		c-0.428,0.675-1.182,1.124-2.04,1.124c-1.333,0-2.414-1.081-2.414-2.414s1.081-2.414,2.414-2.414c0.833,0,1.568,0.422,2.002,1.064"
		/>
	<polyline fill="none" stroke="#182026" stroke-linecap="round" stroke-linejoin="round" stroke-miterlimit="10" points="
		21.726,6.5 18,1.047 14.274,6.5 	"/>
	
		<line fill="none" stroke="#182026" stroke-linecap="round" stroke-linejoin="round" stroke-miterlimit="10" x1="18.063" y1="14.563" x2="18" y2="1.266"/>
	<polyline fill="none" stroke="#182026" stroke-linecap="round" stroke-linejoin="round" stroke-miterlimit="10" points="
		21.726,29.305 18,34.758 14.274,29.305 	"/>
	
		<line fill="none" stroke="#182026" stroke-linecap="round" stroke-linejoin="round" stroke-miterlimit="10" x1="18.063" y1="21.242" x2="18" y2="34.539"/>
	<polyline fill="none" stroke="#182026" stroke-linecap="round" stroke-linejoin="round" stroke-miterlimit="10" points="
		6.598,21.628 1.145,17.902 6.598,14.177 	"/>
	
		<line fill="none" stroke="#182026" stroke-linecap="round" stroke-linejoin="round" stroke-miterlimit="10" x1="14.66" y1="17.965" x2="1.363" y2="17.902"/>
	<polyline fill="none" stroke="#182026" stroke-linecap="round" stroke-linejoin="round" stroke-miterlimit="10" points="
		29.402,21.628 34.855,17.902 29.402,14.177 	"/>
	
		<line fill="none" stroke="#182026" stroke-linecap="round" stroke-linejoin="round" stroke-miterlimit="10" x1="21.34" y1="17.965" x2="34.637" y2="17.902"/>
</g>
</svg>
