<?xml version="1.0" encoding="utf-8"?>
<!-- Generator: Adobe Illustrator 17.0.0, SVG Export Plug-In . SVG Version: 6.00 Build 0)  -->
<!DOCTYPE svg PUBLIC "-//W3C//DTD SVG 1.1//EN" "http://www.w3.org/Graphics/SVG/1.1/DTD/svg11.dtd">
<svg version="1.1" id="图层_1" xmlns="http://www.w3.org/2000/svg" xmlns:xlink="http://www.w3.org/1999/xlink" x="0px" y="0px"
	 width="36px" height="36px" viewBox="0 0 36 36" enable-background="new 0 0 36 36" xml:space="preserve">
<g>
	<polygon fill="#48AFF0" points="34,35 30.75,30.458 18.531,30.438 21,35 	"/>
	<polygon fill="#0071BC" points="21,35 18.438,30.188 18.448,0.448 21,3 	"/>
	<polygon fill="#48AFF0" points="34,35 30,31.25 30.188,0.458 34,3 	"/>
	<polygon fill="#0071BC" points="34,3 30.438,0.438 18.448,0.448 21,3 	"/>
	<rect x="21" y="3" fill="#48AFF0" width="13" height="32"/>
	<polygon fill="#48AFF0" points="28.875,26.917 24.234,23.75 23.958,11.542 28.833,14.042 	"/>
	<polygon fill="#182026" points="29,14 23.74,11.438 1,11.448 4,14 	"/>
	<polygon fill="#48AFF0" points="28.552,27 24.802,23 1.01,23.188 4,27 	"/>
	<polygon fill="#182026" points="4,27 1,23.542 1,11.448 4,14 	"/>
	<rect x="4" y="14" fill="#4D4D4D" width="25" height="13"/>
	<polygon fill="#0071BC" points="21,13.938 18.438,10.188 18.448,0.448 21,3 	"/>
	<rect x="28" y="14" opacity="0.6" fill="#0071BC" width="1" height="13"/>
	<rect x="21" y="26" opacity="0.6" fill="#0071BC" width="7" height="1"/>
	<rect x="21" y="8" fill="#48AFF0" width="9" height="6"/>
	<rect x="21" y="13" opacity="0.6" fill="#0071BC" width="8" height="1"/>
</g>
</svg>
