<?xml version="1.0" encoding="utf-8"?>
<!-- Generator: Adobe Illustrator 17.0.0, SVG Export Plug-In . SVG Version: 6.00 Build 0)  -->
<!DOCTYPE svg PUBLIC "-//W3C//DTD SVG 1.1//EN" "http://www.w3.org/Graphics/SVG/1.1/DTD/svg11.dtd">
<svg version="1.1" id="图层_1" xmlns="http://www.w3.org/2000/svg" xmlns:xlink="http://www.w3.org/1999/xlink" x="0px" y="0px"
	 width="36px" height="36px" viewBox="0 0 36 36" enable-background="new 0 0 36 36" xml:space="preserve">
<text transform="matrix(1 0 0 1 10.3347 -1.184)" fill="#3FA9F5" font-family="'SourceHanSansSC-Regular-GBpc-EUC-H'" font-size="6">切割2</text>
<g>
	<polygon fill="none" stroke="#182026" stroke-linecap="round" stroke-linejoin="round" stroke-miterlimit="10" points="25.5,24 
		25.5,34.5 1.5,34.5 1.5,2.5 25.5,2.5 25.5,23 	"/>
	
		<line fill="none" stroke="#182026" stroke-linecap="round" stroke-linejoin="round" stroke-miterlimit="10" x1="7" y1="7.5" x2="20" y2="7.5"/>
	
		<line fill="none" stroke="#182026" stroke-linecap="round" stroke-linejoin="round" stroke-miterlimit="10" x1="7" y1="10.5" x2="20" y2="10.5"/>
	
		<line fill="none" stroke="#182026" stroke-linecap="round" stroke-linejoin="round" stroke-miterlimit="10" x1="7" y1="13.5" x2="22" y2="13.5"/>
	
		<line fill="none" stroke="#182026" stroke-linecap="round" stroke-linejoin="round" stroke-miterlimit="10" x1="7" y1="16.5" x2="18" y2="16.5"/>
	
		<line fill="none" stroke="#182026" stroke-linecap="round" stroke-linejoin="round" stroke-miterlimit="10" x1="7" y1="20.5" x2="15" y2="20.5"/>
	<g>
		<path fill="#48AFF0" stroke="#182026" stroke-linecap="round" stroke-linejoin="round" stroke-miterlimit="10" d="M11.481,30.401
			c-0.118-1.62,1.208-4.316,1.414-4.832L29.984,8.481c0.944-0.944,2.474-0.944,3.418,0l0.118,0.118c0.944,0.944,0.944,2.474,0,3.418
			L16.431,29.105c-0.626,0.228-2.615,1.289-4.832,1.414L11.481,30.401z"/>
		
			<line fill="#48AFF0" stroke="#182026" stroke-linecap="round" stroke-linejoin="round" stroke-miterlimit="10" x1="32.399" y1="13.136" x2="29" y2="9.75"/>
	</g>
</g>
</svg>
