<?xml version="1.0" encoding="utf-8"?>
<!-- Generator: Adobe Illustrator 17.0.0, SVG Export Plug-In . SVG Version: 6.00 Build 0)  -->
<!DOCTYPE svg PUBLIC "-//W3C//DTD SVG 1.1//EN" "http://www.w3.org/Graphics/SVG/1.1/DTD/svg11.dtd">
<svg version="1.1" id="图层_1" xmlns="http://www.w3.org/2000/svg" xmlns:xlink="http://www.w3.org/1999/xlink" x="0px" y="0px"
	 width="36px" height="36px" viewBox="0 0 36 36" enable-background="new 0 0 36 36" xml:space="preserve">
<g>
	<g>
		<polygon fill="#48AFF0" points="26,35.26 6,29.728 6,17.584 26,23.117 		"/>
		<polygon fill="#0071BC" points="28.75,33.385 26,35.26 26,23.117 28.719,21.354 		"/>
		<polygon fill="#0071BC" points="26,23.117 6.04,17.549 8.754,15.74 28.719,21.354 		"/>
	</g>
	<polygon fill="#4D4D4D" points="14.187,11.147 0.906,19.94 21.813,26.007 35.094,17.214 	"/>
	<g>
		<polygon fill="#48AFF0" points="27,19.26 7,13.728 7,2.584 27,8.117 		"/>
		<polygon fill="#0071BC" points="29.75,17.385 27,19.26 27,8.117 29.719,6.354 		"/>
		<polygon fill="#0071BC" points="27,8.117 7.04,2.549 9.754,0.74 29.719,6.354 		"/>
	</g>
</g>
</svg>
