<?xml version="1.0" encoding="utf-8"?>
<!-- Generator: Adobe Illustrator 17.0.0, SVG Export Plug-In . SVG Version: 6.00 Build 0)  -->
<!DOCTYPE svg PUBLIC "-//W3C//DTD SVG 1.1//EN" "http://www.w3.org/Graphics/SVG/1.1/DTD/svg11.dtd">
<svg version="1.1" id="图层_1" xmlns="http://www.w3.org/2000/svg" xmlns:xlink="http://www.w3.org/1999/xlink" x="0px" y="0px"
	 width="36px" height="36px" viewBox="0 0 36 36" enable-background="new 0 0 36 36" xml:space="preserve">
<g>
	
		<rect x="25.25" y="9.191" transform="matrix(0.7071 0.7071 -0.7071 0.7071 17.75 -16.7599)" fill="none" stroke="#182026" stroke-linecap="round" stroke-linejoin="round" stroke-miterlimit="10" width="7.711" height="7.711"/>
	
		<rect x="14.345" y="20.096" transform="matrix(0.7071 0.7071 -0.7071 0.7071 22.2673 -5.8542)" fill="none" stroke="#182026" stroke-linecap="round" stroke-linejoin="round" stroke-miterlimit="10" width="7.711" height="7.711"/>
	
		<rect x="25.361" y="20.096" transform="matrix(0.7071 0.7071 -0.7071 0.7071 25.494 -13.6439)" fill="none" stroke="#182026" stroke-linecap="round" stroke-linejoin="round" stroke-miterlimit="10" width="7.711" height="7.711"/>
	
		<rect x="3.328" y="9.08" transform="matrix(0.7071 0.7071 -0.7071 0.7071 11.2509 -1.291)" fill="none" stroke="#182026" stroke-linecap="round" stroke-linejoin="round" stroke-miterlimit="10" width="7.711" height="7.711"/>
	
		<rect x="19.797" y="14.643" transform="matrix(0.7071 0.7071 -0.7071 0.7071 20.0087 -11.307)" fill="none" stroke="#182026" stroke-linecap="round" stroke-linejoin="round" stroke-miterlimit="10" width="7.711" height="7.711"/>
	<g>
		
			<rect x="14.234" y="9.191" transform="matrix(0.7071 0.7071 -0.7071 0.7071 14.5234 -8.9701)" fill="none" stroke="#182026" stroke-linecap="round" stroke-linejoin="round" stroke-miterlimit="10" width="7.711" height="7.711"/>
		
			<rect x="3.328" y="20.096" transform="matrix(0.7071 0.7071 -0.7071 0.7071 19.0407 1.9356)" fill="none" stroke="#182026" stroke-linecap="round" stroke-linejoin="round" stroke-miterlimit="10" width="7.711" height="7.711"/>
		
			<rect x="8.781" y="14.643" transform="matrix(0.7071 0.7071 -0.7071 0.7071 16.782 -3.5172)" fill="none" stroke="#182026" stroke-linecap="round" stroke-linejoin="round" stroke-miterlimit="10" width="7.711" height="7.711"/>
	</g>
</g>
</svg>
